<svg xmlns="http://www.w3.org/2000/svg" viewBox="0 0 145.05 147.98"><defs><style>.cls-1{fill:#fff;}</style></defs><title>album_1</title><g id="Layer_2" data-name="Layer 2"><g id="create"><g id="album"><g id="description"><path class="cls-1" d="M66.13,0h7.81c.26.06.52.14.79.18,3.93.58,7.89,1,11.78,1.76a63.21,63.21,0,0,1,19.36,7.58A71.52,71.52,0,0,1,131,34.15a69.11,69.11,0,0,1,8.44,21.05c.32,1.46.35,1.45-1.14,1.85L100.18,67.27c-.86.23-1.74.41-2.74.64a26.12,26.12,0,0,0-3.71-11.22,26.76,26.76,0,0,0-8-8.49,27.17,27.17,0,0,0-11-4.34A25.9,25.9,0,0,0,63,44.63,27,27,0,0,0,44.24,76.58a25.72,25.72,0,0,0,11.6,16.6c9,5.72,18.36,5.75,27.93,1V113c-7.55-.39-13.71,2.47-18.76,7.75s-7.59,11.67-6.73,19.19a6.46,6.46,0,0,1-.81-.08,80.63,80.63,0,0,1-14.31-4.36,70.33,70.33,0,0,1-22.38-15,68.89,68.89,0,0,1-12.56-17A71.61,71.61,0,0,1,1,81.83,67.82,67.82,0,0,1,2.41,52.44,69.72,69.72,0,0,1,31.27,12,67.7,67.7,0,0,1,61.13.69C62.8.47,64.47.23,66.13,0ZM63.18,37.9a3.46,3.46,0,0,0,0-.48Q60.68,22.6,58.15,7.76c-.12-.75-.47-.91-1.1-.82A68.85,68.85,0,0,0,49.84,8a47.26,47.26,0,0,0-17.43,8.84c-.64.5-.53.86-.17,1.45q7.5,12.29,15,24.57c.5.82,1,1.63,1.61,2.54C52.38,40.32,57.62,38.75,63.18,37.9ZM73.71,38c-.06-.57-.08-1-.14-1.34L71.29,20.75c-.7-4.91-1.41-9.81-2.06-14.72-.12-.93-.44-1.22-1.35-1a17.62,17.62,0,0,1-2.8.38c-1,0-1.3.41-1.14,1.46,1.34,9.15,2.63,18.3,3.93,27.45.21,1.47.45,2.93.69,4.46Z"/><path class="cls-1" d="M72.52,148a35.94,35.94,0,0,1-5-2.23c-2.8-1.79-4-4.67-4.1-7.85-.31-6.41,2.64-11.39,7.4-15.35,3.52-2.94,7.61-4.71,12.29-4.22a36.22,36.22,0,0,1,6,1.69c0-.23.05-.72.05-1.2q0-20.86,0-41.72c0-1.06.21-1.53,1.35-1.83,7.89-2,15.75-4.19,23.61-6.3l29.42-7.9c.45-.12.91-.18,1.52-.3v1.36c0,18.72,0,37.43,0,56.14,0,9-4.38,15.15-12.22,19a13.24,13.24,0,0,1-11.34.54c-4.13-1.75-6.53-5.89-6.15-10.84.47-5.94,3.42-10.54,8-14.12a18.2,18.2,0,0,1,8.71-3.68,12.36,12.36,0,0,1,8.36,1.78,3.21,3.21,0,0,0,.54.22V77.25a5.28,5.28,0,0,0-.9.1l-35.45,9.54c-3.53,1-7.07,1.9-10.62,2.76-1,.24-1,.79-1,1.53q0,18.91,0,37.82a17.61,17.61,0,0,1-3.17,9.74,19.9,19.9,0,0,1-13.75,9.08,1.3,1.3,0,0,0-.31.16Z"/><path class="cls-1" d="M135.84,84c0,4.47.32,8.75-.13,12.95-.25,2.27-1.8,4.39-2.83,6.55-.1.22-.62.28-.95.32-8.5,1.14-14.67,5.71-18.92,13a20.73,20.73,0,0,0-3,11,2,2,0,0,1-.42,1.35c-1.45,1.37-9.08,5.39-11.27,6,0-.35-.07-.68-.07-1,0-12.95,0-25.91,0-38.87a1.51,1.51,0,0,1,1.33-1.77c11.34-3,22.66-6.06,34-9.1C134.29,84.34,135,84.22,135.84,84Z"/><path class="cls-1" d="M83.88,77.48c0,1.77-.11,3.55,0,5.31a2.88,2.88,0,0,1-1.31,2.67c-11.11,9-28,2.94-30.74-11.1-1.49-7.65.94-14.2,7.23-19A19.06,19.06,0,0,1,89.6,68.88c.12,1.18-.34,1.44-1.37,1.39s-2.21,0-3.31,0c-.85,0-1.07.29-1.06,1.09C83.9,73.38,83.88,75.43,83.88,77.48ZM64.69,70.62a5.91,5.91,0,1,0,11.81-.11,5.87,5.87,0,0,0-6-5.84A5.8,5.8,0,0,0,64.69,70.62Z"/></g></g></g></g></svg>