<svg xmlns="http://www.w3.org/2000/svg" viewBox="0 0 136.84 136.79"><defs><style>.cls-1{fill:#fff;}</style></defs><title>edit_1</title><g id="Layer_2" data-name="Layer 2"><g id="home"><g id="content"><path class="cls-1" d="M37.76,107.5a3.31,3.31,0,0,1-2.48-1.15c-1.55-1.56-3.11-3.1-4.66-4.66-1.83-1.85-1.83-3.52,0-5.36L65.9,61.05,99.37,27.58c2.43-2.42,3.77-2.42,6.22,0,1.37,1.36,2.72,2.73,4.08,4.1,1.76,1.78,1.77,3.5,0,5.26L70.21,76.43Q55.33,91.31,40.45,106.19A3.6,3.6,0,0,1,37.76,107.5Z"/><path class="cls-1" d="M51.16,120.94a3.27,3.27,0,0,1-2.47-1.18c-1.46-1.45-2.93-2.91-4.38-4.37-2.17-2.19-2.19-3.69,0-5.84l35.3-35.3L113,40.85c2.21-2.2,3.74-2.17,5.94.07,1.39,1.41,2.8,2.79,4.19,4.19,1.77,1.8,1.79,3.5,0,5.27L53.86,119.65A3.57,3.57,0,0,1,51.16,120.94Z"/><path class="cls-1" d="M88.89,12.4a3.33,3.33,0,0,1,2.53,1.06c1.58,1.59,3.18,3.17,4.76,4.76,1.83,1.85,1.84,3.52,0,5.35Q79.5,40.28,62.79,57L27.4,92.37c-2.38,2.37-3.7,2.37-6.12,0-1.34-1.32-2.67-2.66-4-4-2-2-2-3.58,0-5.54L68.75,31.33q8.81-8.8,17.6-17.61A3.53,3.53,0,0,1,88.89,12.4Z"/><path class="cls-1" d="M106.3,0a14.34,14.34,0,0,1,10.44,4.22c5.33,5.27,10.65,10.54,15.88,15.9a14.85,14.85,0,0,1,.15,20.58c-.92,1-1.92,1.88-2.83,2.87-.49.55-.78.45-1.26,0Q111,25.84,93.32,8.13c-.27-.26-.87-.48-.32-1.05,2.74-2.85,5.49-5.7,9.57-6.63A13.8,13.8,0,0,1,106.3,0Z"/><path class="cls-1" d="M45.24,126.52c-5.91,1.35-12,2.5-17.92,4.16-3.26.91-5.34.3-7.63-2.21-4.48-4.94-9.36-9.52-14.11-14.23a1.88,1.88,0,0,1-.6-2c1.51-6.86,2.95-13.75,4.42-20.62.07-.3.16-.59.2-.74Z"/><path class="cls-1" d="M0,136.79,3.3,121,15.81,133.2Z"/></g></g></g></svg>