<svg xmlns="http://www.w3.org/2000/svg" viewBox="0 0 1139.52 492.05"><defs><style>.cls-1{fill:#2667ff;}.cls-2{fill:#3b28cc;}</style></defs><title>logo</title><g id="Layer_2" data-name="Layer 2"><g id="Camada_1" data-name="Camada 1"><path class="cls-1" d="M13.54,342.5c3.36-4.84,6.34-10.44,9.7-15.29s8.57-6.34,12.68-3c2.23,1.86,31,25.73,59.67,25.73,25.73,0,42.14-15.66,42.14-34.68,0-22.37-19.39-36.55-56.31-51.84-38-16-67.88-35.8-67.88-79.06,0-29.09,22.38-69,81.67-69,37.3,0,65.27,19.39,69,22a8.86,8.86,0,0,1,2.23,12.68c-3,4.47-6.33,9.7-9.32,14.17-3,4.85-7.83,7.09-13.05,3.73-2.61-1.49-28.72-18.65-50.35-18.65-31.32,0-42.14,19.77-42.14,33.57,0,21.26,16.41,34.31,47.36,47,43.26,17.53,80.18,38,80.18,83.53,0,38.79-34.68,70.49-83.16,70.49-45.5,0-74.21-23.87-80.18-29.46C12.42,351.45,9.81,348.84,13.54,342.5Z"/><path class="cls-1" d="M250.71,485c0,4.11-2.61,7.09-7.83,7.09H222A7.34,7.34,0,0,1,214.9,485V238.08A7.33,7.33,0,0,1,222,231h11.19c3,0,4.85,1.49,6.34,4.85l3.73,9.69c2.61-2.61,17.9-18.27,45.5-18.27,41,0,71.23,35.8,71.23,78.68,0,43.64-32.07,77.95-72.73,77.95a74.66,74.66,0,0,1-36.54-10.07Zm32.07-133.13c24.61,0,42.51-20.52,42.51-45.88,0-25-15.66-46.23-41-46.23-21.63,0-32.82,17.15-34.31,21.62V341A55.24,55.24,0,0,0,282.78,351.83Z"/><path class="cls-1" d="M461.76,227.27c41.78,0,75.34,35.8,75.34,77.94,0,42.89-33.56,78.69-75.34,78.69s-75.33-35.8-75.33-78.69C386.43,263.07,420,227.27,461.76,227.27Zm0,124.56c23.5,0,42.15-20.89,42.15-46.62,0-25-18.65-45.49-42.15-45.49s-42.13,20.5-42.13,45.49C419.63,330.94,438.28,351.83,461.76,351.83Z"/><path class="cls-1" d="M584.07,262H568.41a7.09,7.09,0,0,1-7.09-7.08V238.08a6.86,6.86,0,0,1,7.09-7.08h15.66V189.6a7.33,7.33,0,0,1,7.09-7.08l21.26-.38a7,7,0,0,1,6.71,7.09V231h38a6.85,6.85,0,0,1,7.08,7.08v16.79a7.08,7.08,0,0,1-7.08,7.08h-38v73.84c0,12.68,4.85,14.92,11.93,14.92,7.84,0,18.28-4.48,22.75-6.71,4.85-2.24,7.09,0,8.58,3.35l6.71,16.41c1.87,4.1.38,7.09-3.35,8.95C662,375,640,383.9,622.11,383.9c-29.46,0-38-17.9-38-44.38Z"/><path class="cls-1" d="M892.4,227.27c38.78,0,68.61,29.09,68.61,69a92.17,92.17,0,0,1-.74,10.07,6.87,6.87,0,0,1-6.71,6.34H852.12c1.11,20.14,18.64,39.9,42.89,39.9,13.42,0,25.73-6,33.19-10.81,4.47-2.62,7.08-4.1,10.06-.38l10.44,14.18c2.62,3,3.73,6-.74,9.69-10.81,9.33-30.21,18.65-55.19,18.65-45.13,0-75-35.43-75-78.32C817.8,263.44,847.64,227.27,892.4,227.27Zm33.93,61.9c-1.12-17.9-16-33.19-34.31-33.19-20.14,0-35.8,14.55-38,33.19Z"/><path class="cls-1" d="M795.3,373.08a7.08,7.08,0,0,1-7.08,7.09H764a7.33,7.33,0,0,1-7.09-7.09V285.44l-5.49-1.34c-45.5,0-84.94-38.69-84.94-84.94,0-45.12,42-79.08,87.87-79.08l33.89-1a7.07,7.07,0,0,1,7.08,7.08ZM756.89,248.9V156.41l-8.42-1.18c-25.73,0-43.93,18.57-43.93,43.93,0,26.85,24.05,49.79,49.79,49.79Z"/><path class="cls-1" d="M982.78,126.2a7.07,7.07,0,0,1,7.08-7.08l33.89,1c45.88,0,87.87,34,87.87,79.08,0,46.25-39.44,84.94-84.94,84.94l-5.49,1.34v87.64a7.33,7.33,0,0,1-7.08,7.09H989.86a7.08,7.08,0,0,1-7.08-7.09Zm41,122.75c25.74,0,49.79-22.94,49.79-49.79,0-25.36-18.19-43.93-43.93-43.93l-8.42,1.18V248.9Z"/><path class="cls-1" d="M988.65,127.51c-1-24.13-10.73-46.31-26.72-60.85-13.07-11.87-33.5-19.68-57.52-22C877.8,42.17,852.09,45.91,833.88,55c-31.79,15.81-43.89,47.75-44.61,72.36L760,126.48c1.24-42.22,24.55-79.67,60.84-97.73,31.45-15.64,67.6-15,86.35-13.21,21.43,2,51.73,8.8,74.45,29.45,21.75,19.77,35,49.41,36.28,81.32Z"/><path class="cls-1" d="M1009.87,293.87c-.16,0,7.47-.68,7.22-.83,1.48.92,2.54,8.84,3.15,10.51a82.48,82.48,0,0,0,10.34,19.83c9.49,13.29,21.1,19.4,34.34,27.87,6.37,4.07,6.49,10.94,9.25,18,2.85,7.25,6.47,14.56,11.83,20.33,10.82,11.64,25.57,14.39,40.85,13.25,16.82-1.26,17-27.63,0-26.36-9.54.72-17.79.75-23.72-7.82-5-7.25-5.87-15.55-8.62-23.62-5-14.6-18.43-15.69-29.6-23.81-14.62-10.62-17-24.16-24.17-39.38-6.24-13.25-17.49-14.78-30.87-14.29-16.91.63-17,27,0,26.36Z"/><path class="cls-2" d="M1.82,327.86c3.36-4.85,6.34-10.44,9.7-15.29s8.58-6.34,12.68-3c2.24,1.86,31,25.73,59.67,25.73,25.73,0,42.14-15.67,42.14-34.68,0-22.38-19.39-36.55-56.31-51.85-38-16-67.88-35.79-67.88-79,0-29.09,22.38-69,81.68-69,37.29,0,65.26,19.4,69,22a8.86,8.86,0,0,1,2.24,12.68c-3,4.47-6.34,9.69-9.32,14.17-3,4.85-7.84,7.08-13.06,3.73-2.61-1.5-28.71-18.65-50.34-18.65-31.33,0-42.15,19.77-42.15,33.56,0,21.26,16.41,34.31,47.37,47,43.26,17.53,80.18,38.05,80.18,83.54,0,38.79-34.68,70.49-83.17,70.49-45.49,0-74.21-23.87-80.18-29.47C.71,336.81-1.9,334.2,1.82,327.86Z"/><path class="cls-2" d="M239,470.32c0,4.1-2.61,7.09-7.83,7.09H210.27a7.34,7.34,0,0,1-7.08-7.09V223.44a7.34,7.34,0,0,1,7.08-7.09h11.19c3,0,4.85,1.49,6.34,4.85l3.73,9.7c2.61-2.62,17.9-18.28,45.5-18.28,41,0,71.23,35.8,71.23,78.69,0,43.64-32.07,77.95-72.72,77.95A74.71,74.71,0,0,1,239,359.19Zm32.07-133.14c24.62,0,42.52-20.51,42.52-45.87,0-25-15.66-46.24-41-46.24-21.64,0-32.82,17.15-34.31,21.63v59.67A55.26,55.26,0,0,0,271.06,337.18Z"/><path class="cls-2" d="M450.05,212.62c41.77,0,75.34,35.8,75.34,77.95,0,42.88-33.57,78.69-75.34,78.69s-75.33-35.81-75.33-78.69C374.72,248.42,408.28,212.62,450.05,212.62Zm0,124.56c23.5,0,42.14-20.88,42.14-46.61,0-25-18.64-45.5-42.14-45.5s-42.14,20.51-42.14,45.5C407.91,316.3,426.56,337.18,450.05,337.18Z"/><path class="cls-2" d="M572.36,247.31H556.7a7.08,7.08,0,0,1-7.09-7.09V223.44a6.86,6.86,0,0,1,7.09-7.09h15.66V175a7.34,7.34,0,0,1,7.09-7.09l21.25-.37a7,7,0,0,1,6.72,7.08v41.77h38a6.86,6.86,0,0,1,7.09,7.09v16.78a7.08,7.08,0,0,1-7.09,7.09h-38v73.84c0,12.68,4.84,14.91,11.93,14.91,7.83,0,18.27-4.47,22.74-6.71,4.85-2.24,7.1,0,8.58,3.36l6.72,16.41c1.86,4.1.37,7.08-3.36,8.95-3.73,2.23-25.73,11.19-43.63,11.19-29.46,0-38-17.9-38-44.39Z"/><path class="cls-2" d="M880.68,212.62c38.78,0,68.61,29.09,68.61,69a92,92,0,0,1-.74,10.06,6.85,6.85,0,0,1-6.71,6.35H840.4c1.12,20.13,18.64,39.9,42.89,39.9,13.42,0,25.73-6,33.19-10.82,4.47-2.61,7.09-4.1,10.07-.37L937,340.91c2.61,3,3.73,6-.74,9.7-10.82,9.32-30.21,18.65-55.2,18.65-45.13,0-75-35.43-75-78.32C806.09,248.79,835.92,212.62,880.68,212.62Zm33.93,61.91c-1.11-17.9-16-33.19-34.3-33.19-20.14,0-35.81,14.55-38,33.19Z"/><path class="cls-2" d="M783.59,358.44a7.08,7.08,0,0,1-7.09,7.09H752.26a7.33,7.33,0,0,1-7.08-7.09V270.8l-5.5-1.35c-45.5,0-84.93-38.69-84.93-84.93,0-45.13,42-79.08,87.86-79.08l33.89-1a7.08,7.08,0,0,1,7.09,7.09ZM745.18,234.25V141.77l-8.42-1.19c-25.74,0-43.94,18.58-43.94,43.94,0,26.85,24.06,49.79,49.79,49.79Z"/><path class="cls-2" d="M971.06,111.56a7.09,7.09,0,0,1,7.09-7.09l33.89,1c45.87,0,87.86,33.95,87.86,79.08,0,46.24-39.43,84.93-84.93,84.93l-5.49,1.35v87.64a7.34,7.34,0,0,1-7.09,7.09H978.15a7.09,7.09,0,0,1-7.09-7.09Zm41,122.75c25.73,0,49.79-22.94,49.79-49.79,0-25.36-18.2-43.94-43.93-43.94l-8.42,1.19v92.48Z"/><path class="cls-2" d="M976.93,112.86c-1-24.13-10.73-46.3-26.72-60.84-13.07-11.88-33.49-19.68-57.52-22-26.61-2.54-52.32,1.21-70.53,10.27-31.79,15.82-43.89,47.75-44.61,72.36l-29.27-.85c1.23-42.23,24.55-79.68,60.83-97.73C840.57-1.54,876.72-.88,895.47.9c21.42,2,51.73,8.8,74.44,29.45,21.75,19.77,35,49.41,36.29,81.31Z"/><path class="cls-2" d="M998.15,279.23c-.15,0,7.47-.68,7.23-.83,1.48.92,2.54,8.84,3.14,10.51a83.2,83.2,0,0,0,10.34,19.83c9.5,13.29,21.11,19.4,34.34,27.86,6.37,4.08,6.5,10.95,9.26,18,2.85,7.26,6.47,14.57,11.83,20.33,10.82,11.64,25.56,14.4,40.85,13.26,16.81-1.26,16.95-27.63,0-26.36-9.55.71-17.79.75-23.73-7.83-5-7.24-5.86-15.55-8.61-23.61-5-14.6-18.44-15.69-29.6-23.81-14.62-10.63-17-24.17-24.18-39.39-6.23-13.25-17.48-14.78-30.87-14.28-16.91.63-17,27,0,26.36Z"/></g></g></svg>